<?xml version="1.0" standalone="no"?><!DOCTYPE svg PUBLIC "-//W3C//DTD SVG 1.1//EN" "http://www.w3.org/Graphics/SVG/1.1/DTD/svg11.dtd"><svg t="1651755293142" class="icon" viewBox="0 0 1024 1024" version="1.1" xmlns="http://www.w3.org/2000/svg" p-id="3715" width="200" height="200" xmlns:xlink="http://www.w3.org/1999/xlink"><defs><style type="text/css">@font-face { font-family: feedback-iconfont; src: url("//at.alicdn.com/t/font_1031158_u69w8yhxdu.woff2?t=1630033759944") format("woff2"), url("//at.alicdn.com/t/font_1031158_u69w8yhxdu.woff?t=1630033759944") format("woff"), url("//at.alicdn.com/t/font_1031158_u69w8yhxdu.ttf?t=1630033759944") format("truetype"); }
</style></defs><path d="M757.088 613.952a123.104 123.104 0 0 0 0 246.208 123.104 123.104 0 1 0 0-246.208z m0 215.552a92.48 92.48 0 1 1-0.032-184.928 92.48 92.48 0 0 1 0.032 184.928z" p-id="3716"></path><path d="M757.088 705.952a31.104 31.104 0 1 0 0 62.208 31.104 31.104 0 0 0 0-62.208z m0 45.376a14.208 14.208 0 1 1 0-28.416 14.176 14.176 0 1 1 0 28.416zM888.096 898.112l-51.232-93.664-24.032 9.728 45.888 83.936h-196.608l46.528-71.68-23.264-11.104-53.728 82.784h-9.984v26.56h275.648v-26.56h-9.216z" p-id="3717"></path><path d="M805.024 357.216c-9.44-102.56-88.128-184.352-188.704-199.776-40.864-52.256-103.872-86.4-175.456-86.4a223.68 223.68 0 0 0-222.656 203.008 223.616 223.616 0 0 0-215.488 211.968c-5.888 115.456 76.96 214.144 188.512 231.776a223.04 223.04 0 0 0 157.44 85.632v0.672h7.072l0.384 0.064c2.368 0.128 4.704 0 7.04 0v-0.064h270.816v-30.432h-278.016a193.44 193.44 0 0 1-181.6-202.88 193.504 193.504 0 0 1 203.2-183.296c2.112 0.032 4.416 0.608 6.592 1.024a124.608 124.608 0 0 0-0.192-5.024c1.824-0.096 3.616-0.224 5.408-0.224-0.192-1.76-0.544-3.456-0.544-5.28a193.504 193.504 0 0 1 386.944 0c0 2.272-0.352 4.448-0.672 6.688 1.568-0.192 3.136-0.256 4.736-0.416 0.128 1.408 0.352 2.848 0.448 4.256 1.696-0.32 3.392-0.768 5.184-0.832a193.472 193.472 0 0 1 205.408 180.704c5.024 78.368-38.144 147.488-103.328 181.888v34.24c13.824-5.76 27.232-12.32 39.264-20.8a223.648 223.648 0 0 0 94.336-197.184 223.68 223.68 0 0 0-216.128-209.312z m-445.408 0.032a223.584 223.584 0 0 0-215.456 212 222.08 222.08 0 0 0 23.296 111.072c-81.568-25.952-139.104-103.2-134.464-192.672A193.472 193.472 0 0 1 236.16 304.32c2.176 0.096 4.384 0.64 6.592 1.056a68.032 68.032 0 0 1-0.192-5.056c1.792-0.064 3.552-0.192 5.376-0.192-0.192-1.76-0.512-3.488-0.512-5.28a193.472 193.472 0 0 1 193.408-193.472c51.68 0 97.984 20.672 132.576 53.696-112.352 4.48-203.616 91.264-213.792 202.176z" p-id="3718"></path><path d="M484.992 656.576H295.136a9.504 9.504 0 0 0-9.504 9.504v47.488c0 5.248 4.256 9.504 9.504 9.504h189.856a9.472 9.472 0 0 0 9.472-9.504v-47.488a9.472 9.472 0 0 0-9.472-9.504z m-151.872 42.752a9.376 9.376 0 0 1-9.504-9.44 9.504 9.504 0 0 1 18.976 0 9.408 9.408 0 0 1-9.472 9.44z m28.448 0a9.408 9.408 0 0 1-9.504-9.44 9.504 9.504 0 0 1 18.976 0 9.376 9.376 0 0 1-9.472 9.44z m94.912 0h-47.456a9.408 9.408 0 0 1-9.472-9.44c0-5.248 4.256-9.504 9.472-9.504h47.456c5.248 0 9.504 4.256 9.504 9.504a9.376 9.376 0 0 1-9.504 9.44z m28.512-118.592H295.136a9.568 9.568 0 0 0-9.504 9.568v47.36c0 5.248 4.256 9.504 9.504 9.504h189.856a9.472 9.472 0 0 0 9.472-9.504v-47.36a9.536 9.536 0 0 0-9.472-9.568zM333.12 623.36c-5.28 0-9.504-4.192-9.504-9.44a9.504 9.504 0 0 1 18.976 0 9.44 9.44 0 0 1-9.472 9.44z m28.448 0a9.44 9.44 0 1 1 0-18.944 9.472 9.472 0 0 1 0 18.944z m94.912 0h-47.456c-5.216 0-9.472-4.192-9.472-9.44s4.256-9.504 9.472-9.504h47.456a9.44 9.44 0 1 1 0 18.944z m28.512-118.56H295.136a9.504 9.504 0 0 0-9.504 9.504v47.424c0 5.248 4.256 9.504 9.504 9.504h189.856a9.472 9.472 0 0 0 9.472-9.504v-47.424a9.472 9.472 0 0 0-9.472-9.504z m-151.872 42.688a9.472 9.472 0 1 1-0.032-18.976 9.472 9.472 0 0 1 0.032 18.976z m28.448 0a9.504 9.504 0 1 1 0-19.008 9.504 9.504 0 0 1 0 19.008z m94.912 0h-47.456a9.504 9.504 0 0 1 0-19.008h47.456a9.504 9.504 0 0 1 0 19.008z" p-id="3719"></path></svg>
