<?xml version="1.0" standalone="no"?><!DOCTYPE svg PUBLIC "-//W3C//DTD SVG 1.1//EN" "http://www.w3.org/Graphics/SVG/1.1/DTD/svg11.dtd"><svg t="1652506306079" class="icon" viewBox="0 0 1024 1024" version="1.1" xmlns="http://www.w3.org/2000/svg" p-id="1933" xmlns:xlink="http://www.w3.org/1999/xlink" width="200" height="200"><defs><style type="text/css">@font-face { font-family: feedback-iconfont; src: url("//at.alicdn.com/t/font_1031158_u69w8yhxdu.woff2?t=1630033759944") format("woff2"), url("//at.alicdn.com/t/font_1031158_u69w8yhxdu.woff?t=1630033759944") format("woff"), url("//at.alicdn.com/t/font_1031158_u69w8yhxdu.ttf?t=1630033759944") format("truetype"); }
</style></defs><path d="M971.44 831.6H52.56A44.56 44.56 0 0 1 8 787.04V228.8A44.56 44.56 0 0 1 52.56 184h918.88a44.56 44.56 0 0 1 44.56 44.8v558.24a44.56 44.56 0 0 1-44.56 44.56zM52.56 216A12.56 12.56 0 0 0 40 228.8v558.24a12.56 12.56 0 0 0 12.56 12.56h918.88a12.56 12.56 0 0 0 12.56-12.56V228.8a12.56 12.56 0 0 0-12.56-12.8H52.56z" p-id="1934"></path><path d="M584 568.8h-16l1.84-14.88h-0.4a34.32 34.32 0 0 1-32.64 17.28c-26.8 0-43.28-17.36-46.32-42.72-3.76-32 13.68-66.24 50.4-66.24 12.8 0 29.12 4.4 34.88 18.32H576l4.56-55.6h17.04z m-46.16-12.72c26.16 0 37.44-30 34.88-51.76a28.72 28.72 0 0 0-29.6-26.96c-27.44 0-38.24 28.16-35.52 51.12a27.92 27.92 0 0 0 30.48 27.6zM618.72 464.72h16l-2.4 22.32h0.4a37.44 37.44 0 0 1 35.2-24.8 30.48 30.48 0 0 1 6.08 0l-2 18.4a42.08 42.08 0 0 0-5.12 0 34.4 34.4 0 0 0-10.24 1.04 32 32 0 0 0-20.32 16.96 62.48 62.48 0 0 0-5.84 24l-4.08 46.16h-17.2zM759.2 568.8h-16.64l1.36-16h-0.4a40.88 40.88 0 0 1-35.2 18.08c-19.68 0-30.24-8.48-32.4-26.8a105.92 105.92 0 0 1 0.64-20.32l5.76-59.44h17.28l-6.16 60.8a111.12 111.12 0 0 0-0.48 16 17.76 17.76 0 0 0 20 14.48 35.36 35.36 0 0 0 33.52-33.84l5.52-57.04h17.28zM795.12 464.72h17.28l-9.52 104H785.6z m19.12-18.72h-17.52l2-20.96H816zM922 568.8h-16l1.84-14.88h-0.4a34.32 34.32 0 0 1-32.64 17.36c-26.8 0-43.28-17.36-46.32-42.72-3.76-32 13.68-66.24 50.4-66.24 12.8 0 29.12 4.4 34.88 18.32h0.4l4.56-55.6h17.04z m-46.16-12.72c26.16 0 37.44-30 34.88-51.76a28.72 28.72 0 0 0-29.6-26.96c-27.44 0-38.24 28.16-35.52 51.12a27.92 27.92 0 0 0 30.24 27.6z" p-id="1935"></path><path d="M135.04 457.52h-28.56a12 12 0 1 1 0-24h28.56a12 12 0 0 1 0 24zM292.64 580.48H152a12 12 0 0 1 0-24h140.64a92.64 92.64 0 0 0 44.4-10.64c17.36-9.52 28.8-17.76 28.8-44a44.56 44.56 0 0 0-11.2-33.12 38.8 38.8 0 0 0-25.28-10.16H171.28a12 12 0 1 1 0-24h157.84a63.52 63.52 0 0 1 42.32 17.04 67.44 67.44 0 0 1 18.48 50.32c0 42.4-25.84 56.56-41.28 65.04a116.56 116.56 0 0 1-56 13.52z" p-id="1936"></path><path d="M316.4 636.88h-49.52a12 12 0 0 1 0-24h49.52c40.4 0 108.96-26.4 109.52-125.2a85.36 85.36 0 0 0-35.2-74 88 88 0 0 0-51.76-16H189.04a12 12 0 0 1 0-24h149.92a111.44 111.44 0 0 1 65.76 20.32A109.04 109.04 0 0 1 449.92 488c-0.56 102.24-69.6 148.88-133.52 148.88zM229.6 636.96h-25.68a12 12 0 0 1 0-24h25.68a12 12 0 1 1 0 24z" p-id="1937"></path></svg>
