<?xml version="1.0" standalone="no"?><!DOCTYPE svg PUBLIC "-//W3C//DTD SVG 1.1//EN" "http://www.w3.org/Graphics/SVG/1.1/DTD/svg11.dtd"><svg t="1689235333366" class="icon" viewBox="0 0 1024 1024" version="1.1" xmlns="http://www.w3.org/2000/svg" p-id="2301" xmlns:xlink="http://www.w3.org/1999/xlink" width="200" height="200"><path d="M392.977504 434.25253A217.123094 217.123094 0 1 0 175.868254 217.14328a217.123094 217.123094 0 0 0 217.10925 217.10925zM505.671631 1008.854131a49.54942 49.54942 0 0 1-14.509023-35.081931V829.498798a49.494042 49.494042 0 0 1 26.304526-43.803958 50.061666 50.061666 0 0 1-29.43338-45.686808V593.82409a50.158578 50.158578 0 0 1 50.241644-50.241644h79.799625c-37.67085-49.217152-87.441782-86.832624-123.562049-62.78475-45.866786 30.554783-76.006235 147.305345-101.521626 147.305345-26.622949 0-53.9935-116.764406-101.53547-147.305345C234.873459 444.428228 152.62336 548.261883 121.016395 626.884726 96.04094 689.046474 88.551073 772.030331 88.551073 839.508362c0 102.684562 103.833655 167.753653 170.425638 177.098682 52.609052 7.392956 83.966816 7.392956 134.291527 7.392956 46.5867 0 87.594071 0 125.126476-5.939285a49.632487 49.632487 0 0 1-12.723083-9.206584z" p-id="2302"></path><path d="M525.164669 626.593992a37.103226 37.103226 0 0 1 37.158604-37.158604h108.083912a37.103226 37.103226 0 0 1 37.158604 37.158604v108.083912a37.103226 37.103226 0 0 1-37.158604 37.158604h-108.083912a37.103226 37.103226 0 0 1-37.158604-37.158604z m227.852572 0a37.130915 37.130915 0 0 1 37.172448-37.158604h108.070068a37.130915 37.130915 0 0 1 37.172449 37.158604v108.083912a37.130915 37.130915 0 0 1-37.172449 37.158604H790.189689a37.130915 37.130915 0 0 1-37.103226-37.158604zM525.164669 854.640387a37.103226 37.103226 0 0 1 37.158604-37.14476h108.083912a37.103226 37.103226 0 0 1 37.158604 37.14476v108.083912a37.103226 37.103226 0 0 1-37.158604 37.158604h-108.083912a37.103226 37.103226 0 0 1-37.158604-37.158604z m227.852572 0a37.103226 37.103226 0 0 1 37.172448-37.14476h108.070068a37.103226 37.103226 0 0 1 37.172449 37.14476v108.083912a37.130915 37.130915 0 0 1-37.172449 37.158604H790.189689a37.130915 37.130915 0 0 1-37.103226-37.158604z" p-id="2303"></path></svg>