<?xml version="1.0" standalone="no"?><!DOCTYPE svg PUBLIC "-//W3C//DTD SVG 1.1//EN" "http://www.w3.org/Graphics/SVG/1.1/DTD/svg11.dtd"><svg t="1689317206663" class="icon" viewBox="0 0 1024 1024" version="1.1" xmlns="http://www.w3.org/2000/svg" p-id="2992" id="mx_n_1689317206665" xmlns:xlink="http://www.w3.org/1999/xlink" width="200" height="200"><path d="M514 509.2m-439.4 0a439.4 439.4 0 1 0 878.8 0 439.4 439.4 0 1 0-878.8 0Z" fill="#43B77B" p-id="2993" data-spm-anchor-id="a313x.7781069.0.i21" class=""></path><path d="M608.6 479.3c14.8 0 29.6 0 44.3 0.1 16.3 0.1 23.2 8.7 19.3 24.3-18.2 73-36.5 145.9-54.8 218.9-4.1 16.3-16.4 26.3-33.4 26.4-49.8 0.2-99.5 0.2-149.3 0-15.6 0-28.7-10.3-32.4-25.4-18.6-74.1-37.1-148.3-55.5-222.4-3-12.2 4.3-21.6 16.9-21.9 13.6-0.3 27.1-0.2 40.7-0.2 0.4 0.1 0.7 0.2 1.1 0.2 5.6 21.8 11.2 43.5 16.7 65.3 1.6 6.1 3.2 12.3 4.9 18.4 4.7 19.7 9.4 39.4 14.1 59.2h-26.4c7.2 26.4 13.6 51.1 20.6 75.6 3.2 11.2 12 17 23.9 17 31.4 0.1 62.7 0.1 94.1 0 15.3 0 23.8-6.9 27.8-21.8 3.3-12.2 6.7-24.3 10-36.5l9.1-34.2h-34c6.1-21.7 12.2-43.5 18.3-65.2l4.2-14.1c6.2-21.2 12.4-42.3 18.6-63.5h0.6l0.6-0.2z" fill="#CDE9EF" p-id="2994"></path><path d="M448.8 408.8c1.3 5.4 2.5 10.9 3.8 16.3-19.1 4.8-38.2 9.7-57.3 14.5-1.2-3.9-2.4-7.9-3.9-12.7-31.1 19.8-63.2 29.6-100.7 14.7 22.7-13.6 46.1-19.1 70.6-22-41.3-18.4-67.8-50.8-90-91.4 10.5 2.2 18.9 3.6 27 5.7 35.5 9.3 63.1 29.1 81.1 61.5 1.3 2.3 3.2 4.1 4.8 6.2l-0.1-0.1c0.2 1.4 0.3 2.9 0.7 6 0.9-2.5 1.2-3.3 1.5-4.1 1.9 6.4 3.8 12.9 5.8 19.5 19.3-4.8 38-9.5 56.7-14.1z" fill="#468E7E" p-id="2995"></path><path d="M639.3 372.8c-0.7 1.8-1.4 3.5-2.1 5.3-16.3-4.3-32.5-8.5-48.8-12.8 1.9-8.4 3.8-16.9 5.7-25.3l-0.1 0.1c0.6-1.2 1.2-2.3 1.8-3.5l5.7-20.4c6.6-21.4 13.2-42.7 20-64.7 15.1 4.3 29.7 8.5 44.3 12.7 5.4 1.5 3.8 4.8 2.7 8.4-6.5 21.8-12.8 43.7-19.2 65.6-0.5 1.7-0.7 3.5-1 5.3-3 9.7-6 19.5-9 29.3z" fill="#52A797" p-id="2996"></path><path d="M448.8 408.8c-18.7 4.6-37.4 9.3-56.8 14.1-2-6.6-3.9-13.1-5.8-19.5-0.7-0.6-1.5-1.2-2.2-1.9l0.1 0.1c-3.8-17.2-7.6-34.3-11.5-51.5-1.9-8.1-4-16.1-6.4-25.6 19.7-4.4 38.8-8.6 57.9-12.9 1.7 5.8 3.4 11.7 5.2 17.5 6.4 26.6 12.9 53.1 19.5 79.7z" fill="#50A797" p-id="2997"></path><path d="M639.3 372.8c3-9.8 6.1-19.5 9.1-29.3 10.1-11 19.4-23 30.5-32.8 21.9-19.5 48.2-31.3 78-40.4-15.9 46.5-43.3 79.5-88.8 97 22.5 2.9 43.5 8.9 63.2 22.9-20 4.3-38.3 2.7-56.2-2.9-12.2-3.9-23.9-9.6-35.8-14.5z" fill="#468E7E" p-id="2998"></path><path d="M507.5 479.3c15.5 0.1 31 0.1 46.5 0.2h0.5l-12.9 47.1c-1.7 6-3.5 12-5.2 18-7.6 26-15.2 51.9-22.8 77.9h-11.5c-6.2-24.7-12.4-49.5-18.7-74.2-1.4-5.6-2.8-11.2-4.1-16.8-0.4-3.5-0.8-7-1.2-10.4 21.2 2.3 39.3-3.2 53.9-21.5-4.4-0.7-7.4-1.7-10.2-1.4-11.2 1.1-22.4 2.6-32.7 3.8 5.2-6.9 11.2-14.6 17.1-22.3l0.7 0.1 0.6-0.5z" fill="#CBE8ED" p-id="2999"></path><path d="M601.5 316.2l-5.7 20.4c-0.6 1.2-1.2 2.3-1.8 3.5l0.1-0.1c-9.9 6.5-19.8 13.1-29.9 19.4-2.4 1.5-5.5 1.8-8.2 2.6-0.7-0.9-1.3-1.9-2-2.8 10.2-9.3 20.5-18.6 30.5-27.7-24.1 2.8-47.4-1-68.4-20.5 20.8-3.6 39.2-1.4 57.6 2.5 1 0.2 2.1 0.5 3.1 0.7-0.5-0.8-1.1-1.5-1.6-2.3-24.5-25.8-36.4-57.2-41.1-92.4 34.6 13.7 66.5 52.5 67.4 96.7z" fill="#488F7E" p-id="3000"></path><path d="M608.6 479.3l-0.6 0.2h-0.6c-17.7 0-35.3-0.1-53-0.1h-0.5c9.1-30.7 18.2-61.3 27.4-92 0.6-2 1.4-3.9 2.1-5.9l48.9 12.9c-7.8 27.1-15.5 54.2-23.3 81.3-0.2 1.2-0.2 2.5-0.4 3.6z" fill="#52A797" p-id="3001"></path><path d="M429.1 329.1c-1.7-5.8-3.4-11.7-5.2-17.5 1.3-24.4 5.6-48.1 21.9-67.4 9-10.6 19.5-19.9 30.4-28.8 0.9 34.3-6.2 65.6-26 93.2l-0.6 1.8c0.7-0.1 1.4-0.3 2-0.4 17.1-3.8 34.2-7.5 51.3-11.3 0.6 1.2 1.1 2.3 1.7 3.5-3.1 3.2-6 6.8-9.5 9.6-16.2 12.9-34.8 18.1-55.3 17.3-3.5-0.1-7.1 0-10.7 0z" fill="#488F7E" p-id="3002"></path><path d="M395.2 439.6c19.1-4.8 38.2-9.7 57.3-14.5 4.3 17.4 8.7 34.9 13 52.3 0 0.7-0.1 1.4-0.1 2.1-19.9 0-39.8 0-59.8-0.1-0.4 0-0.8-0.1-1.1-0.2l-9.3-39.6z" fill="#52A797" p-id="3003"></path><path d="M507.5 479.3l-0.7 0.3-0.7-0.1c-12.3 0-24.7-0.1-37-0.1 7.9-33.4 28.8-57.7 55.5-80.4 2.2 29.9-2.8 56.1-17.1 80.3z" fill="#51A595" p-id="3004"></path><path d="M469 479.4c12.3 0 24.7 0.1 37 0.1-5.9 7.7-11.8 15.5-17.1 22.3 10.3-1.2 21.4-2.7 32.7-3.8 2.9-0.3 5.9 0.8 10.2 1.4-14.5 18.3-32.6 23.8-53.9 21.5-3.5-13.1-7-26.3-10.5-39.4 0-0.6 0.1-1.3 0.1-1.9 0.5 0 1-0.1 1.5-0.2z" fill="#377268" p-id="3005"></path><path d="M632.4 394.5l-48.9-12.9c1.7-5.4 3.3-10.9 5-16.3 16.3 4.3 32.5 8.5 48.8 12.8-1.7 5.4-3.3 10.9-4.9 16.4z" fill="#458F81" p-id="3006"></path><path d="M467.5 479.7c0 0.6-0.1 1.3-0.1 1.9-0.7-0.7-1.4-1.4-2-2.1 0-0.7 0.1-1.4 0.1-2.1 0.7 0.7 1.4 1.5 2 2.3z" fill="#51A595" p-id="3007"></path><path d="M502 622.4h98.4c-3.3 12.4-6.1 23.3-9.1 34.2-3.3 12.2-6.7 24.3-10 36.5-4 14.9-12.5 21.7-27.8 21.8-31.4 0.1-62.7 0.1-94.1 0-11.9 0-20.7-5.8-23.9-17-7.1-24.5-13.5-49.2-20.6-75.6h26.4c20.2 0 40.5 0 60.7 0.1z" fill="#6BBCD6" p-id="3008"></path><path d="M502 622.4c-20.2 0-40.4-0.1-60.6-0.1-4.7-19.7-9.4-39.4-14.1-59.2l56.1-15c6.1 24.8 12.3 49.5 18.6 74.3z" fill="#468E81" p-id="3009"></path><path d="M566.4 622.4h-52.9c7.6-26 15.2-51.9 22.8-77.9 16.1 4.2 32.2 8.4 48.3 12.7-6.1 21.7-12.2 43.4-18.2 65.2z" fill="#468E82" p-id="3010"></path><path d="M465.4 479.5c0.7 0.7 1.4 1.4 2 2.1 3.5 13.1 7 26.3 10.5 39.4 0.4 3.5 0.8 7 1.2 10.4-18.9 4.4-37.9 8.9-56.8 13.3-5.6-21.8-11.2-43.5-16.7-65.3 20 0.1 39.9 0.1 59.8 0.1z" fill="#448E80" p-id="3011"></path><path d="M554.5 479.5c17.7 0 35.3 0.1 53 0.1-6.2 21.2-12.4 42.3-18.6 63.5-3.5-1.9-6.9-4.3-10.6-5.5-12.1-3.9-24.4-7.3-36.6-11 4.1-15.8 8.5-31.5 12.8-47.1z" fill="#468E82" p-id="3012"></path><path d="M422.4 544.7c18.9-4.4 37.9-8.9 56.8-13.3 1.4 5.6 2.8 11.2 4.1 16.8l-56.1 15c-1.6-6.2-3.2-12.4-4.8-18.5z" fill="#366F66" p-id="3013"></path><path d="M541.5 526.5c12.2 3.6 24.5 7.1 36.6 11 3.7 1.2 7.1 3.7 10.6 5.5l-4.2 14.1c-16.1-4.2-32.2-8.4-48.3-12.7 1.8-5.9 3.6-11.9 5.3-17.9z" fill="#357167" p-id="3014"></path><path d="M383.9 401.5c0.7 0.6 1.5 1.2 2.2 1.9-0.3 0.8-0.6 1.6-1.5 4.1-0.3-3.1-0.5-4.6-0.7-6zM594 340c0.6-1.2 1.2-2.3 1.8-3.5-0.6 1.2-1.2 2.4-1.8 3.5zM575 311.8c0.5 0.8 1.1 1.5 1.6 2.3-1-0.2-2.1-0.5-3.1-0.7 0.6-0.5 1.1-1 1.5-1.6zM451.7 310c-0.7 0.1-1.4 0.3-2 0.4l0.6-1.8 1.4 1.4z" fill="#E6B659" p-id="3015"></path></svg>
